<?xml version="1.0" encoding="utf-8"?>
<!-- Generator: Adobe Illustrator 24.0.1, SVG Export Plug-In . SVG Version: 6.00 Build 0)  -->
<svg version="1.1" id="Layer_1" xmlns="http://www.w3.org/2000/svg" xmlns:xlink="http://www.w3.org/1999/xlink" x="0px" y="0px"
	 viewBox="0 0 106 30" style="enable-background:new 0 0 106 30;" xml:space="preserve">
<style type="text/css">
	.st0{fill:#AAB7C5;}
</style>
<g id="Layer_2_1_">
	<g>
		<g>
			<polygon class="st0" points="11.5,5 11.5,13.4 3.8,13.4 3.8,5 0.1,5 0.1,25.2 3.8,25.2 3.8,17 11.5,17 11.5,25.2 15.2,25.2 
				15.2,5 			"/>
			<path class="st0" d="M27,18.6c0,1.7-1.4,3.1-3.1,3.1s-3.1-1.4-3.1-3.1V10h-3.5v8.7c0,3.6,2.9,6.5,6.5,6.5c3.6,0,6.5-2.9,6.5-6.5
				V10H27V18.6z"/>
			<path class="st0" d="M53,10.9c0-1.8,1.2-2.3,2.5-2.3c1,0,2.4,0.8,3.3,1.7L61,7.6C59.9,6,57.6,5,55.7,5c-3.8,0-6.5,2.2-6.5,5.9
				c0,6.8,8.4,4.7,8.4,8.5c0,1.2-1.1,2.2-2.5,2.2c-2.1,0-2.7-1-3.7-2.1l-2.5,2.6c1.6,2,3.6,3,6,3c3.6,0,6.5-2.3,6.5-5.8
				C61.3,11.8,53,14.2,53,10.9"/>
			<path class="st0" d="M104.7,21.9c-2.1,0-2.7-0.9-2.7-2.3v-6.1h3.2v-3.1H102V6.5l-3.5,1.6v12.4c0,3.2,2.2,4.8,5.2,4.8
				c0.5,0,0.9,0,1.4-0.1l0.9-3.2C105.5,21.9,105.1,21.9,104.7,21.9"/>
			<path class="st0" d="M40.4,10.1c-1.7,0-2.9,0.5-4.1,1.7V5.1h-3.5v12.3c0,4.6,3.3,7.8,7.1,7.8c4.2,0,7.8-3.2,7.8-7.5
				C47.6,13.4,44.3,10.1,40.4,10.1 M40.3,21.7c-2.2,0-4-1.8-4-4s1.8-4,4-4s4,1.8,4,4S42.5,21.7,40.3,21.7"/>
			<path class="st0" d="M78.4,17.5c0-4.3-3.6-7.5-7.8-7.5c-3.7,0-7.1,3.2-7.1,7.8V30H67v-6.7c1.2,1.1,2.4,1.7,4.1,1.7
				C75.1,25,78.4,21.7,78.4,17.5 M75.1,17.4c0,2.2-1.8,4-4,4s-4-1.8-4-4s1.8-4,4-4S75.1,15.2,75.1,17.4"/>
		</g>
	</g>
	<g>
		<g>
			<path class="st0" d="M89.7,9.7V6.2c0.9-0.4,1.6-1.4,1.6-2.4V3.7c0-1.5-1.2-2.7-2.7-2.7h-0.1c-1.5,0-2.7,1.2-2.7,2.7v0.1
				c0,1,0.6,2,1.6,2.4v3.5c-1.3,0.2-2.6,0.8-3.7,1.6l-9.7-7.5c0.1-0.2,0.1-0.5,0.1-0.8c0-1.7-1.4-3.1-3-3.1c-1.7,0-3.1,1.4-3.1,3
				c0,1.7,1.4,3.1,3,3.1c0,0,0,0,0,0c0.5,0,1-0.1,1.5-0.4l9.5,7.4c-1.7,2.6-1.7,6.1,0.1,8.7l-2.9,2.9c-0.2-0.1-0.5-0.1-0.7-0.1
				c-1.4,0-2.5,1.1-2.5,2.5s1.1,2.5,2.5,2.5c1.4,0,2.5-1.1,2.5-2.5c0-0.2,0-0.5-0.1-0.7l2.9-2.9c3.4,2.6,8.2,2,10.8-1.4
				s2-8.2-1.4-10.8C92.3,10.5,91,9.9,89.7,9.7 M88.6,21.3c-2.2,0-4-1.8-4-4s1.8-4,4-4c2.2,0,4,1.8,4,4
				C92.5,19.5,90.8,21.3,88.6,21.3"/>
		</g>
	</g>
</g>
</svg>
